<svg width="84" height="84" viewBox="0 0 84 84" fill="none" xmlns="http://www.w3.org/2000/svg">
<g clip-path="url(#clip0)">
<path d="M55.5993 38.6835L84 33.1221L73.6593 25.1421L84 17.3793L56.4828 11.5862L34.1069 17.9731L15.931 4.34485L0 17.3793L15.931 15.9311C15.931 25.0552 15.6414 18.8276 17.3793 44.8966L31.8621 49.2414L60.8276 79.6552L49.2414 52.1379L51.0372 42.1014L55.5993 38.6835Z" fill="#E64C3C"/>
<path d="M15.931 4.34485V15.9311L0 17.3793L15.931 4.34485Z" fill="#F0C419"/>
<path d="M34.107 17.9731L15.9312 23.1724V4.34485L34.107 17.9731Z" fill="#E64C3C"/>
<path d="M56.4829 11.5862L49.2415 52.138L46.3449 44.8966L31.8622 49.2414L15.9312 23.1724L56.4829 11.5862Z" fill="#C03A2B"/>
<path d="M84.0001 17.3793L51.0374 42.1014L56.4829 11.5862L84.0001 17.3793Z" fill="#E64C3C"/>
<path d="M84.0001 33.1221L55.5994 38.6835L73.6594 25.1421L84.0001 33.1221Z" fill="#C03A2B"/>
<path d="M60.8278 79.6552L31.8623 49.2414L46.3451 44.8965L60.8278 79.6552Z" fill="#E64C3C"/>
<path d="M31.8622 49.2414L17.3794 44.8966L15.9312 23.1724L31.8622 49.2414Z" fill="#E64C3C"/>
</g>
<defs>
<clipPath id="clip0">
<rect width="84" height="84" fill="white"/>
</clipPath>
</defs>
</svg>
