<svg width="83" height="83" viewBox="0 0 83 83" fill="none" xmlns="http://www.w3.org/2000/svg">
<path d="M8.18552 74.7143L0.243283 29.6224C0.166593 29.1872 0.118788 28.7474 0.100179 28.3059C-0.017854 23.1936 3.65297 18.7776 8.7007 17.9595L24.0271 15.2548L23.6121 74.7143H8.18552Z" fill="#35495E"/>
<path d="M67.1726 72.7395C66.9069 73.8429 66.0142 74.6849 64.8973 74.886L19.7911 82.8426C16.948 83.3389 14.0289 82.5869 11.7796 80.7786C9.53021 78.9704 8.16849 76.2811 8.0423 73.3978C7.92958 68.51 11.2947 64.2271 16.0704 63.1802L28.7064 66.7291H28.6921L17.3154 68.7469C16.0466 68.9699 14.9446 69.7501 14.3126 70.8727C13.6806 71.9953 13.5852 73.3421 14.0526 74.5426C14.8621 76.4761 16.9178 77.5757 18.9754 77.1757L53.449 71.0938L67.1726 72.7395Z" fill="#2C3E50"/>
<path d="M28.6923 66.7291L17.3156 68.7469C16.0468 68.9699 14.9448 69.75 14.3128 70.8726C13.6808 71.9953 13.5854 73.3421 14.0528 74.5426C14.8623 76.4761 16.918 77.5757 18.9756 77.1757L53.4492 71.0938L28.6923 66.7291Z" fill="#F9EAB0"/>
<path d="M18.3545 47.4688L26.3067 2.37122C26.5914 0.821052 28.0685 -0.212959 29.6225 0.0500773L74.3809 7.94223C79.4323 8.76102 83.106 13.1798 82.9886 18.2958C82.9691 18.7353 82.9213 19.1732 82.8455 19.6066L74.8932 64.7042L18.3545 47.4688Z" fill="#E64C3C"/>
<path d="M65.0234 14.9886C64.9395 14.9886 64.8557 14.9814 64.773 14.9672L32.3586 9.25163C31.6271 9.07123 31.1608 8.35455 31.2921 7.61268C31.4235 6.8708 32.1076 6.35786 32.8566 6.43965L65.2695 12.148C66.0005 12.2761 66.5124 12.9418 66.4483 13.6812C66.3842 14.4205 65.7655 14.9882 65.0234 14.9886Z" fill="#3F5C6C"/>
<path d="M58.143 21.0362C58.059 21.0363 57.9751 21.0286 57.8925 21.0133L36.7533 17.2912C35.9927 17.1369 35.4937 16.4046 35.6284 15.6403C35.7631 14.876 36.4824 14.3584 37.2498 14.4735L58.3905 18.1941C59.1258 18.3184 59.6424 18.9865 59.5777 19.7294C59.513 20.4723 58.8887 21.0409 58.143 21.0362Z" fill="#3F5C6C"/>
<path d="M61.1306 27.4278L31.5297 22.1988C30.7512 22.0613 30.0086 22.5809 29.8711 23.3594L27.3811 37.4551C27.2436 38.2336 27.7632 38.9761 28.5417 39.1137L58.1426 44.3427C58.9211 44.4802 59.6637 43.9606 59.8012 43.1821L62.2912 29.0864C62.4287 28.3079 61.9091 27.5653 61.1306 27.4278Z" fill="#ECF0F1"/>
<path d="M82.9857 18.2886C82.9687 18.7303 82.9209 19.1702 82.8426 19.6052L74.8861 64.6971L63.8528 61.3342L70.2495 25.0717L71.7664 16.5142L73.3119 7.75623L74.3852 7.94226C79.4306 8.76445 83.0994 13.1779 82.9857 18.2886Z" fill="#C03A2B"/>
<path d="M66.4286 53.0341L21.6659 45.1491C21.5004 45.1206 21.3329 45.1063 21.165 45.1062C19.6818 45.11 18.4472 46.2462 18.3206 47.724C18.1941 49.2019 19.2175 50.5315 20.6785 50.7874L65.7704 58.7297C67.0381 58.9592 68.1367 59.7437 68.7655 60.8682C69.3942 61.9927 69.4871 63.3394 69.0188 64.5397C68.2138 66.4689 66.1611 67.5641 64.1104 67.1584L19.1902 59.2448C19.0248 59.2163 18.8572 59.202 18.6893 59.2019C17.2034 59.1982 15.9618 60.3324 15.8313 61.8126C15.7008 63.2928 16.7248 64.6267 18.1885 64.8831L63.2947 72.8253C66.1357 73.3234 69.0535 72.5739 71.3029 70.7684C73.5522 68.963 74.9151 66.2763 75.0435 63.3948C75.1558 58.2767 71.4813 53.8576 66.4286 53.0341Z" fill="#802F34"/>
<path d="M69.0188 64.5396C68.2138 66.4689 66.1611 67.5641 64.1104 67.1584L19.1902 59.2448L20.6785 50.7874L65.7704 58.7297C67.0381 58.9592 68.1367 59.7437 68.7655 60.8682C69.3942 61.9927 69.4871 63.3394 69.0188 64.5396Z" fill="#F9EAB0"/>
</svg>
