<svg width="82" height="82" viewBox="0 0 82 82" fill="none" xmlns="http://www.w3.org/2000/svg">
<g clip-path="url(#clip0)">
<path d="M76.0209 82H46.9792C45.5647 82 44.4167 80.852 44.4167 79.4375V33.3125C44.4167 32.5403 44.7652 31.8091 45.3632 31.324C45.9611 30.8354 46.7435 30.6441 47.502 30.8046L77.2851 37.0435C80.0731 37.6619 82.0001 40.0604 82.0001 42.886V76.0208C82.0001 79.3179 79.318 82 76.0209 82Z" fill="#90A4AE"/>
<path d="M49.5417 31.2318V82H46.9792H64.9168V34.4537L49.5417 31.2318Z" fill="#7D8F97"/>
<path d="M44.5192 6.38916L6.97 0.683328C5.2275 0.409994 3.45083 0.888327 2.11833 2.01583C0.785833 3.17749 0 4.85166 0 6.59416V78.5833C0 80.4625 1.5375 82 3.41667 82H14.5208V64.0625C14.5208 60.7483 17.1858 58.0833 20.5 58.0833H29.0417C32.3558 58.0833 35.0208 60.7483 35.0208 64.0625V82H49.5417V12.3C49.5417 9.36166 47.4233 6.86749 44.5192 6.38916Z" fill="#607D8B"/>
<path d="M35.0208 64.0625V82H14.5208V64.0625C14.5208 60.7483 17.1858 58.0833 20.4999 58.0833H29.0416C32.3558 58.0833 35.0208 60.7483 35.0208 64.0625Z" fill="#ECEFF1"/>
<path d="M6.0065 0.608154C4.58858 0.608154 3.20483 1.09674 2.11833 2.01582C0.785833 3.17749 0 4.85165 0 6.59415V78.5833C0 80.4625 1.5375 82 3.41667 82H14.5208V64.0625C14.5208 60.7483 17.1858 58.0833 20.5 58.0833H24.7708V3.38932L6.97 0.683321C6.64883 0.632071 6.32767 0.608154 6.0065 0.608154Z" fill="#546D79"/>
<path d="M24.7708 58.0833H20.4999C17.1858 58.0833 14.5208 60.7483 14.5208 64.0625V82H24.7708V58.0833Z" fill="#CDD0D2"/>
<path d="M18.7917 29.8959H13.6667C12.2522 29.8959 11.1042 28.7479 11.1042 27.3334C11.1042 25.9189 12.2522 24.7709 13.6667 24.7709H18.7917C20.2062 24.7709 21.3542 25.9189 21.3542 27.3334C21.3542 28.7479 20.2062 29.8959 18.7917 29.8959Z" fill="#ECEFF1"/>
<path d="M35.875 29.8959H30.75C29.3355 29.8959 28.1875 28.7479 28.1875 27.3334C28.1875 25.9189 29.3355 24.7709 30.75 24.7709H35.875C37.2895 24.7709 38.4375 25.9189 38.4375 27.3334C38.4375 28.7479 37.2895 29.8959 35.875 29.8959Z" fill="#ECEFF1"/>
<path d="M18.7917 40.1459H13.6667C12.2522 40.1459 11.1042 38.9979 11.1042 37.5834C11.1042 36.1689 12.2522 35.0209 13.6667 35.0209H18.7917C20.2062 35.0209 21.3542 36.1689 21.3542 37.5834C21.3542 38.9979 20.2062 40.1459 18.7917 40.1459Z" fill="#ECEFF1"/>
<path d="M35.875 40.1459H30.75C29.3355 40.1459 28.1875 38.9979 28.1875 37.5834C28.1875 36.1689 29.3355 35.0209 30.75 35.0209H35.875C37.2895 35.0209 38.4375 36.1689 38.4375 37.5834C38.4375 38.9979 37.2895 40.1459 35.875 40.1459Z" fill="#ECEFF1"/>
<path d="M18.7917 50.3959H13.6667C12.2522 50.3959 11.1042 49.2479 11.1042 47.8334C11.1042 46.4189 12.2522 45.2709 13.6667 45.2709H18.7917C20.2062 45.2709 21.3542 46.4189 21.3542 47.8334C21.3542 49.2479 20.2062 50.3959 18.7917 50.3959Z" fill="#ECEFF1"/>
<path d="M35.875 50.3959H30.75C29.3355 50.3959 28.1875 49.2479 28.1875 47.8334C28.1875 46.4189 29.3355 45.2709 30.75 45.2709H35.875C37.2895 45.2709 38.4375 46.4189 38.4375 47.8334C38.4375 49.2479 37.2895 50.3959 35.875 50.3959Z" fill="#ECEFF1"/>
<path d="M67.4793 61.5H62.3542C60.9397 61.5 59.7917 60.352 59.7917 58.9375C59.7917 57.523 60.9397 56.375 62.3542 56.375H67.4793C68.8938 56.375 70.0418 57.523 70.0418 58.9375C70.0418 60.352 68.8938 61.5 67.4793 61.5Z" fill="#ECEFF1"/>
<path d="M67.4793 71.75H62.3542C60.9397 71.75 59.7917 70.602 59.7917 69.1875C59.7917 67.773 60.9397 66.625 62.3542 66.625H67.4793C68.8938 66.625 70.0418 67.773 70.0418 69.1875C70.0418 70.602 68.8938 71.75 67.4793 71.75Z" fill="#ECEFF1"/>
<path d="M18.7917 19.6459H13.6667C12.2522 19.6459 11.1042 18.4979 11.1042 17.0834C11.1042 15.6689 12.2522 14.5209 13.6667 14.5209H18.7917C20.2062 14.5209 21.3542 15.6689 21.3542 17.0834C21.3542 18.4979 20.2062 19.6459 18.7917 19.6459Z" fill="#ECEFF1"/>
<path d="M35.875 19.6459H30.75C29.3355 19.6459 28.1875 18.4979 28.1875 17.0834C28.1875 15.6689 29.3355 14.5209 30.75 14.5209H35.875C37.2895 14.5209 38.4375 15.6689 38.4375 17.0834C38.4375 18.4979 37.2895 19.6459 35.875 19.6459Z" fill="#ECEFF1"/>
<path d="M67.4793 51.25H62.3542C60.9397 51.25 59.7917 50.102 59.7917 48.6875C59.7917 47.273 60.9397 46.125 62.3542 46.125H67.4793C68.8938 46.125 70.0418 47.273 70.0418 48.6875C70.0418 50.102 68.8938 51.25 67.4793 51.25Z" fill="#ECEFF1"/>
<path d="M21.3542 17.0834H11.1042C11.1042 18.4979 12.2522 19.6459 13.6667 19.6459H18.7917C20.2062 19.6459 21.3542 18.4979 21.3542 17.0834Z" fill="#CDD0D2"/>
<path d="M38.4375 17.0834H28.1875C28.1875 18.4979 29.3355 19.6459 30.75 19.6459H35.875C37.2895 19.6459 38.4375 18.4979 38.4375 17.0834Z" fill="#CDD0D2"/>
<path d="M21.3542 27.3333H11.1042C11.1042 28.7478 12.2522 29.8958 13.6667 29.8958H18.7917C20.2062 29.8958 21.3542 28.7478 21.3542 27.3333Z" fill="#CDD0D2"/>
<path d="M38.4375 27.3333H28.1875C28.1875 28.7478 29.3355 29.8958 30.75 29.8958H35.875C37.2895 29.8958 38.4375 28.7478 38.4375 27.3333Z" fill="#CDD0D2"/>
<path d="M21.3542 37.5834H11.1042C11.1042 38.9979 12.2522 40.1459 13.6667 40.1459H18.7917C20.2062 40.1459 21.3542 38.9979 21.3542 37.5834Z" fill="#CDD0D2"/>
<path d="M38.4375 37.5834H28.1875C28.1875 38.9979 29.3355 40.1459 30.75 40.1459H35.875C37.2895 40.1459 38.4375 38.9979 38.4375 37.5834Z" fill="#CDD0D2"/>
<path d="M21.3542 47.8333H11.1042C11.1042 49.2478 12.2522 50.3958 13.6667 50.3958H18.7917C20.2062 50.3958 21.3542 49.2478 21.3542 47.8333Z" fill="#CDD0D2"/>
<path d="M38.4375 47.8333H28.1875C28.1875 49.2478 29.3355 50.3958 30.75 50.3958H35.875C37.2895 50.3958 38.4375 49.2478 38.4375 47.8333Z" fill="#CDD0D2"/>
<path d="M70.0418 48.6875H59.7917C59.7917 50.102 60.9397 51.25 62.3542 51.25H67.4793C68.8938 51.25 70.0418 50.102 70.0418 48.6875Z" fill="#CDD0D2"/>
<path d="M70.0418 58.9375H59.7917C59.7917 60.352 60.9397 61.5 62.3542 61.5H67.4793C68.8938 61.5 70.0418 60.352 70.0418 58.9375Z" fill="#CDD0D2"/>
<path d="M70.0418 69.1875H59.7917C59.7917 70.602 60.9397 71.75 62.3542 71.75H67.4793C68.8938 71.75 70.0418 70.602 70.0418 69.1875Z" fill="#CDD0D2"/>
</g>
<defs>
<clipPath id="clip0">
<rect width="82" height="82" fill="white"/>
</clipPath>
</defs>
</svg>
