<svg width="89" height="89" viewBox="0 0 89 89" fill="none" xmlns="http://www.w3.org/2000/svg">
<path d="M23.6406 18.0781H43.1094V65.3594H23.6406V18.0781Z" fill="#C7312E"/>
<path d="M42.4901 18.3116L36.5105 14.3254C37.302 13.7848 37.9403 13.0488 38.3636 12.1889C38.7869 11.3289 38.9808 10.3742 38.9264 9.41722C38.872 8.46027 38.5712 7.53362 38.0532 6.72716C37.5352 5.9207 36.8176 5.26181 35.9699 4.8144C35.1223 4.36699 34.1733 4.14625 33.2152 4.17359C32.2571 4.20093 31.3224 4.47543 30.5016 4.97046C29.6808 5.46548 29.0019 6.16423 28.5308 6.99892C28.0596 7.83361 27.8122 8.7759 27.8124 9.73439C27.8124 10.1032 27.959 10.4569 28.2197 10.7177C28.4805 10.9785 28.8342 11.125 29.2031 11.125C29.5719 11.125 29.9256 10.9785 30.1864 10.7177C30.4472 10.4569 30.5937 10.1032 30.5937 9.73439C30.5937 9.18431 30.7568 8.64659 31.0624 8.18921C31.368 7.73184 31.8024 7.37536 32.3106 7.16485C32.8188 6.95435 33.378 6.89927 33.9175 7.00658C34.457 7.1139 34.9526 7.37879 35.3416 7.76775C35.7305 8.15672 35.9954 8.65229 36.1027 9.1918C36.2101 9.73131 36.155 10.2905 35.9445 10.7987C35.734 11.3069 35.3775 11.7413 34.9201 12.0469C34.4627 12.3525 33.925 12.5156 33.3749 12.5156C33.1004 12.5156 32.8319 12.5969 32.6035 12.7493L24.2597 18.3118C23.955 18.5173 23.7441 18.8351 23.673 19.1957C23.6019 19.5562 23.6765 19.9303 23.8803 20.2361C24.0842 20.5419 24.4009 20.7545 24.7611 20.8276C25.1213 20.9006 25.4958 20.828 25.8026 20.6258L33.3749 15.5774L40.9472 20.6256C41.2541 20.8278 41.6286 20.9004 41.9888 20.8274C42.349 20.7544 42.6656 20.5417 42.8695 20.2359C43.0734 19.9301 43.148 19.5561 43.0769 19.1955C43.0058 18.8349 42.7948 18.5171 42.4901 18.3116Z" fill="#7E8589"/>
<path d="M71.6933 18.3116L65.7136 14.3254C66.5051 13.7848 67.1435 13.0488 67.5667 12.1889C67.99 11.3289 68.1839 10.3742 68.1295 9.41722C68.0751 8.46027 67.7743 7.53362 67.2563 6.72716C66.7383 5.9207 66.0207 5.26181 65.173 4.8144C64.3254 4.36699 63.3765 4.14625 62.4184 4.17359C61.4603 4.20093 60.5255 4.47543 59.7047 4.97046C58.884 5.46548 58.2051 6.16423 57.7339 6.99892C57.2627 7.83361 57.0153 8.7759 57.0156 9.73439C57.0156 10.1032 57.1621 10.4569 57.4229 10.7177C57.6837 10.9785 58.0374 11.125 58.4062 11.125C58.775 11.125 59.1287 10.9785 59.3895 10.7177C59.6503 10.4569 59.7968 10.1032 59.7968 9.73439C59.7968 9.18431 59.9599 8.64659 60.2655 8.18921C60.5711 7.73184 61.0055 7.37536 61.5137 7.16485C62.0219 6.95435 62.5812 6.89927 63.1207 7.00658C63.6602 7.1139 64.1557 7.37879 64.5447 7.76775C64.9337 8.15672 65.1986 8.65229 65.3059 9.1918C65.4132 9.73131 65.3581 10.2905 65.1476 10.7987C64.9371 11.3069 64.5806 11.7413 64.1232 12.0469C63.6659 12.3525 63.1281 12.5156 62.5781 12.5156C62.3035 12.5156 62.035 12.5969 61.8066 12.7493L53.4629 18.3118C53.1582 18.5173 52.9472 18.8351 52.8761 19.1957C52.805 19.5562 52.8796 19.9303 53.0835 20.2361C53.2874 20.5419 53.604 20.7545 53.9642 20.8276C54.3244 20.9006 54.6989 20.828 55.0058 20.6258L62.5781 15.5774L70.1504 20.6256C70.4572 20.8278 70.8317 20.9004 71.1919 20.8274C71.5521 20.7544 71.8688 20.5417 72.0727 20.2359C72.2766 19.9301 72.3511 19.5561 72.28 19.1955C72.2089 18.8349 71.998 18.5171 71.6933 18.3116Z" fill="#7E8589"/>
<path d="M48.6719 18.0781H76.4844V23.6406H48.6719V18.0781Z" fill="#266FAB"/>
<path d="M62.5781 84.8281H45.8906L48.6719 23.6406H62.5781V84.8281Z" fill="#3397E8"/>
<path d="M62.5781 84.8281H79.2656L76.4844 23.6406H62.5781V84.8281Z" fill="#3397E8"/>
<path d="M79.2656 84.8281H62.5781V23.6406H76.4844L76.8007 30.5938L79.2656 84.8281Z" fill="#3397E8"/>
<path d="M27.8125 25.0312V68.1406H18.0781V70.9219H9.73438V43.1094L12.8529 22.2917C13.1535 21.0882 13.8478 20.0198 14.8255 19.2563C15.8031 18.4928 17.008 18.0781 18.2485 18.0781H25.0312C25.0279 20.2205 25.8525 22.2813 27.3327 23.8301L27.8125 25.0312Z" fill="#EB423F"/>
<path d="M57.0156 43.1094V70.9219H48.6719V68.1406H38.9375V25.0312L39.4173 23.8301C40.8975 22.2813 41.7221 20.2205 41.7188 18.0781H48.5015C49.742 18.0781 50.9469 18.4928 51.9245 19.2563C52.9022 20.0198 53.5965 21.0882 53.8971 22.2917L57.0156 43.1094Z" fill="#EB423F"/>
<path d="M27.3327 23.8301C25.8525 22.2813 25.0279 20.2205 25.0312 18.0781H19.4688L20.3588 23.8631C20.9463 27.6769 26.0864 28.4835 27.8125 25.0313V24.296C27.6456 24.1465 27.4857 23.9918 27.3327 23.8301Z" fill="#D13330"/>
<path d="M47.2812 18.0781L46.3913 23.8631C45.8037 27.6769 40.6636 28.4835 38.9375 25.0313V24.296C39.1044 24.1465 39.2643 23.9918 39.4173 23.8301C40.8975 22.2813 41.7221 20.2205 41.7188 18.0781H47.2812Z" fill="#D13330"/>
<path d="M61.1875 23.6406H63.9688V84.8281H61.1875V23.6406Z" fill="#2D85CC"/>
<path d="M76.8008 30.5938H76.4844C70.9219 30.5938 70.9219 23.6406 70.9219 23.6406H76.4844L76.8008 30.5938Z" fill="#2D85CC"/>
<path d="M47.2812 68.1406V41.7188C47.2812 41.3499 47.4278 40.9962 47.6886 40.7354C47.9493 40.4746 48.3031 40.3281 48.6719 40.3281C49.0407 40.3281 49.3944 40.4746 49.6552 40.7354C49.916 40.9962 50.0625 41.3499 50.0625 41.7188V68.1406H47.2812Z" fill="#D13330"/>
<path d="M16.6875 68.1406V41.7188C16.6875 41.3499 16.834 40.9962 17.0948 40.7354C17.3556 40.4746 17.7093 40.3281 18.0781 40.3281C18.4469 40.3281 18.8007 40.4746 19.0614 40.7354C19.3222 40.9962 19.4688 41.3499 19.4688 41.7188V68.1406H16.6875Z" fill="#D13330"/>
</svg>
