<svg width="58" height="58" viewBox="0 0 58 58" fill="none" xmlns="http://www.w3.org/2000/svg">
<path d="M53.6081 43.8557L52.9511 47.0208C52.8412 47.55 52.5523 48.0252 52.133 48.3663C51.7137 48.7073 51.1897 48.8935 50.6492 48.8933H7.27719C6.72756 48.8935 6.19525 48.7011 5.77283 48.3494C5.35041 47.9978 5.0646 47.5092 4.96512 46.9687L4.38965 43.8557H53.6081Z" fill="#4A5160"/>
<path d="M54.3547 39.875H3.64549C3.38339 39.8734 3.12355 39.9236 2.88092 40.0227C2.6383 40.1219 2.41767 40.268 2.23174 40.4528C1.95322 40.7297 1.76326 41.0831 1.68597 41.4682C1.60868 41.8532 1.64755 42.2526 1.79764 42.6155C1.94772 42.9784 2.20227 43.2886 2.52895 43.5066C2.85563 43.7246 3.23972 43.8406 3.63246 43.8399H54.3547C54.6168 43.8415 54.8766 43.7913 55.1193 43.6922C55.3619 43.593 55.5825 43.4469 55.7685 43.2622C55.954 43.0792 56.1012 42.861 56.2015 42.6206C56.3019 42.3801 56.3534 42.122 56.353 41.8614C56.3528 41.5996 56.3009 41.3404 56.2003 41.0987C56.0997 40.857 55.9523 40.6376 55.7666 40.453C55.5809 40.2684 55.3606 40.1224 55.1183 40.0232C54.876 39.924 54.6165 39.8737 54.3547 39.875Z" fill="#6D7486"/>
<path d="M30.8975 16.1686L27.0742 16.1572V19.5976H30.9258V16.2003L30.8975 16.1686Z" fill="#6D7486"/>
<path d="M27.0833 16.1573C26.2922 15.6929 25.6967 14.957 25.4073 14.0865C25.118 13.216 25.1546 12.2701 25.5103 11.4245C25.8659 10.5789 26.5165 9.89125 27.3411 9.48929C28.1657 9.08732 29.1081 8.9984 29.9933 9.23906C30.8785 9.47971 31.6462 10.0336 32.1538 10.7977C32.6613 11.5618 32.8742 12.4842 32.7528 13.3935C32.6313 14.3027 32.1839 15.137 31.4937 15.7412C30.8035 16.3454 29.9173 16.6784 29 16.6784C28.3261 16.6786 27.6643 16.4987 27.0833 16.1573Z" fill="#B0B5CA"/>
<path d="M30.9167 19.6373C42.5156 20.4948 51.7254 29.0747 52.5886 39.8591H5.4126C6.27467 29.0759 15.4833 20.4948 27.0833 19.6373C27.7154 19.5897 28.3543 19.5659 29 19.5659C29.6457 19.5659 30.2846 19.5897 30.9167 19.6373Z" fill="#B0B5CA"/>
<path d="M5.04564 41.8535C5.04524 41.5929 5.09672 41.3349 5.19708 41.0944C5.29744 40.8539 5.44466 40.6358 5.63017 40.4528C5.81611 40.268 6.03674 40.1219 6.27936 40.0227C6.52199 39.9236 6.78182 39.8734 7.04392 39.875H3.64549C3.38339 39.8734 3.12355 39.9236 2.88092 40.0227C2.6383 40.1219 2.41767 40.268 2.23174 40.4528C1.95322 40.7297 1.76326 41.0831 1.68597 41.4681C1.60868 41.8532 1.64755 42.2525 1.79764 42.6155C1.94772 42.9784 2.20227 43.2886 2.52895 43.5066C2.85563 43.7246 3.23972 43.8406 3.63246 43.8399H7.0309C6.76977 43.841 6.51101 43.7904 6.26956 43.691C6.02811 43.5915 5.80875 43.4452 5.62416 43.2606C5.43957 43.0759 5.29341 42.8564 5.19411 42.6149C5.09481 42.3734 5.04435 42.1146 5.04564 41.8535Z" fill="#B0B5CA"/>
<path d="M8.36355 46.9687L7.78809 43.8557H4.38965L4.96512 46.9687C5.0646 47.5092 5.35041 47.9978 5.77283 48.3494C6.19525 48.7011 6.72756 48.8935 7.27719 48.8933H10.6756C10.126 48.8935 9.59369 48.7011 9.17127 48.3494C8.74885 47.9978 8.46304 47.5092 8.36355 46.9687Z" fill="#6D7486"/>
<path d="M30.4817 19.6373C30.554 19.6319 30.6267 19.6278 30.6992 19.623C30.138 19.5857 29.5716 19.5668 29 19.5664C28.3543 19.5664 27.7154 19.5902 27.0833 19.6378C15.4833 20.4953 6.27467 29.0764 5.4126 39.8596H11.0767C11.9387 29.0759 18.8817 20.4949 30.4817 19.6373Z" fill="#D1D6E5"/>
<path d="M21.1034 27.3441C20.9495 27.3442 20.8001 27.2921 20.6797 27.1963C20.5592 27.1005 20.4749 26.9667 20.4404 26.8167C20.4059 26.6667 20.4233 26.5094 20.4898 26.3706C20.5564 26.2319 20.668 26.1197 20.8065 26.0527C21.0349 25.942 21.2693 25.8347 21.5032 25.7338C21.6683 25.6645 21.8541 25.6633 22.0201 25.7302C22.1862 25.7971 22.3191 25.9269 22.39 26.0913C22.461 26.2556 22.4642 26.4414 22.399 26.6081C22.3338 26.7749 22.2055 26.9091 22.0418 26.9818C21.8266 27.0749 21.61 27.1744 21.3994 27.2763C21.3071 27.321 21.2059 27.3442 21.1034 27.3441Z" fill="#F4F8FC"/>
<path d="M14.8226 32.7453C14.6995 32.7452 14.5786 32.7117 14.4731 32.6482C14.3675 32.5847 14.2811 32.4938 14.2233 32.385C14.1654 32.2763 14.1381 32.1539 14.1444 32.0309C14.1508 31.9079 14.1904 31.7889 14.2591 31.6866C15.4492 29.9218 16.9745 28.408 18.7482 27.2312C18.8224 27.1815 18.9056 27.147 18.9931 27.1296C19.0807 27.1121 19.1708 27.1121 19.2583 27.1295C19.3459 27.1468 19.4292 27.1813 19.5034 27.2308C19.5776 27.2804 19.6414 27.3441 19.691 27.4183C19.7406 27.4925 19.7751 27.5757 19.7926 27.6633C19.81 27.7508 19.8101 27.8409 19.7927 27.9285C19.7753 28.016 19.7409 28.0993 19.6913 28.1735C19.6418 28.2478 19.5781 28.3115 19.5039 28.3611C17.8774 29.4396 16.4786 30.8271 15.387 32.4447C15.3249 32.5373 15.2409 32.6132 15.1424 32.6656C15.044 32.7181 14.9342 32.7454 14.8226 32.7453Z" fill="#F4F8FC"/>
</svg>
