<svg width="42" height="49" viewBox="0 0 42 49" fill="none" xmlns="http://www.w3.org/2000/svg">
<path fill-rule="evenodd" clip-rule="evenodd" d="M13.2075 8.44444H25.4636C24.6221 5.86435 22.1966 4 19.3356 4C16.4745 4 14.049 5.86435 13.2075 8.44444ZM8.89111 10.4444C8.89111 4.67614 13.5672 0 19.3356 0C25.1039 0 29.78 4.67614 29.78 10.4444V12.4444H8.89111V10.4444Z" fill="#3E6BB3"/>
<path fill-rule="evenodd" clip-rule="evenodd" d="M0.00244141 10.8889C0.00244141 9.78435 0.897872 8.88892 2.00244 8.88892H35.7802C36.8848 8.88892 37.7802 9.78435 37.7802 10.8889V37.8889C37.7802 41.7549 34.6462 44.8889 30.7802 44.8889H7.00244C3.13645 44.8889 0.00244141 41.7549 0.00244141 37.8889V10.8889ZM4.00244 12.8889V37.8889C4.00244 39.5458 5.34559 40.8889 7.00244 40.8889H30.7802C32.4371 40.8889 33.7802 39.5458 33.7802 37.8889V12.8889H4.00244Z" fill="#3E6BB3"/>
<path fill-rule="evenodd" clip-rule="evenodd" d="M2 0.543213C0.89543 0.543213 -3.91405e-08 1.43864 -8.74228e-08 2.54321L-1.03336e-07 16.5432C-3.24088e-08 17.6478 0.89543 18.5432 2 18.5432C3.10457 18.5432 4 17.6478 4 16.5432L4 2.54321C4 1.43864 3.10457 0.543213 2 0.543213Z" fill="#3E6BB3"/>
<path fill-rule="evenodd" clip-rule="evenodd" d="M29.6919 36.6922C28.9414 37.5027 27.6761 37.5513 26.8656 36.8009L2.86558 14.5787C2.05509 13.8282 2.00642 12.5628 2.75687 11.7523C3.50732 10.9418 4.77272 10.8932 5.58321 11.6436L29.5832 33.8658C30.3937 34.6163 30.4424 35.8817 29.6919 36.6922Z" fill="#3E6BB3"/>
<rect x="26.5" y="33.5" width="15" height="15" rx="7.5" fill="#3E6BB3" stroke="white"/>
<path d="M35.7012 42.7734H32.127L31.4525 44.6442C31.3755 44.8577 31.1729 45 30.946 45V45C30.5687 45 30.3084 44.622 30.443 44.2695L33.2462 36.9287C33.352 36.6517 33.6177 36.4688 33.9142 36.4688V36.4688C34.2106 36.4688 34.4762 36.6515 34.5821 36.9283L37.3914 44.272C37.5258 44.6232 37.2665 45 36.8905 45V45C36.6654 45 36.4642 44.8594 36.3868 44.6479L35.7012 42.7734ZM32.4668 41.8477H35.3672L33.9141 37.8574L32.4668 41.8477Z" fill="white"/>
</svg>
