<svg width="38" height="46" viewBox="0 0 38 46" fill="none" xmlns="http://www.w3.org/2000/svg">
<path fill-rule="evenodd" clip-rule="evenodd" d="M13.4276 8.90125H25.6837C24.8422 6.32117 22.4167 4.45681 19.5556 4.45681C16.6946 4.45681 14.2691 6.32117 13.4276 8.90125ZM9.11121 10.9013C9.11121 5.13295 13.7873 0.456814 19.5556 0.456814C25.324 0.456814 30.0001 5.13295 30.0001 10.9013V12.9013H9.11121V10.9013Z" fill="#3E6BB3"/>
<path fill-rule="evenodd" clip-rule="evenodd" d="M0.222412 11.3457C0.222412 10.2411 1.11784 9.3457 2.22241 9.3457H36.0002C37.1047 9.3457 38.0002 10.2411 38.0002 11.3457V38.3457C38.0002 42.2117 34.8662 45.3457 31.0002 45.3457H7.22241C3.35642 45.3457 0.222412 42.2117 0.222412 38.3457V11.3457ZM4.22241 13.3457V38.3457C4.22241 40.0025 5.56556 41.3457 7.22241 41.3457H31.0002C32.657 41.3457 34.0002 40.0025 34.0002 38.3457V13.3457H4.22241Z" fill="#3E6BB3"/>
<path fill-rule="evenodd" clip-rule="evenodd" d="M2.21997 1C1.1154 1 0.219971 1.89543 0.219971 3L0.219971 17C0.219971 18.1046 1.1154 19 2.21997 19C3.32454 19 4.21997 18.1046 4.21997 17L4.21997 3C4.21997 1.89543 3.32454 1 2.21997 1Z" fill="#3E6BB3"/>
<path fill-rule="evenodd" clip-rule="evenodd" d="M29.912 37.149C29.1615 37.9594 27.8961 38.0081 27.0857 37.2577L3.08567 15.0354C2.27518 14.285 2.22651 13.0196 2.97696 12.2091C3.72742 11.3986 4.99281 11.35 5.8033 12.1004L29.8033 34.3226C30.6138 35.0731 30.6624 36.3385 29.912 37.149Z" fill="#3E6BB3"/>
</svg>
