<svg width="28" height="28" viewBox="0 0 28 28" fill="none" xmlns="http://www.w3.org/2000/svg">
<path d="M14 0C21.7199 0 28 6.28009 28 14C28 21.7199 21.7199 28 14 28C6.28009 28 0 21.7199 0 14C0 6.28009 6.28009 0 14 0Z" fill="#F66571"/>
<path d="M8.84434 17.5057C8.38825 17.962 8.38825 18.6992 8.84434 19.1555C9.07185 19.383 9.37049 19.4973 9.66935 19.4973C9.96799 19.4973 10.2666 19.383 10.4941 19.1555L13.9999 15.6496L17.5057 19.1555C17.7332 19.383 18.0318 19.4973 18.3305 19.4973C18.6293 19.4973 18.928 19.383 19.1555 19.1555C19.6116 18.6992 19.6116 17.962 19.1555 17.5057L15.6495 14L19.1555 10.4942C19.6116 10.0379 19.6116 9.30068 19.1555 8.84438C18.6992 8.3883 17.962 8.3883 17.5057 8.84438L13.9999 12.3504L10.4941 8.84438C10.0378 8.3883 9.30064 8.3883 8.84434 8.84438C8.38825 9.30068 8.38825 10.0379 8.84434 10.4942L12.3503 14L8.84434 17.5057Z" fill="white"/>
</svg>
