<svg width="168" height="136" viewBox="0 0 168 136" fill="none" xmlns="http://www.w3.org/2000/svg">
<path d="M137.21 128.52H1V134.16H137.21V128.52Z" fill="white" stroke="#3E6BB3" stroke-width="2" stroke-miterlimit="10"/>
<path d="M146.771 1H24.4209C16.0317 1 9.23047 7.80074 9.23047 16.1899V93.01C9.23047 101.399 16.0317 108.2 24.4209 108.2H146.771C155.16 108.2 161.96 101.399 161.96 93.01V16.1899C161.96 7.80074 155.16 1 146.771 1Z" fill="#3E6BB3"/>
<path d="M151.131 1H28.7803C20.3911 1 13.5908 7.80074 13.5908 16.1899V93.01C13.5908 101.399 20.3911 108.2 28.7803 108.2H151.131C159.52 108.2 166.32 101.399 166.32 93.01V16.1899C166.32 7.80074 159.52 1 151.131 1Z" fill="white" stroke="#3E6BB3" stroke-width="2"/>
<path d="M142.754 78.29H40.1259C32.5672 78.29 26.4404 83.6627 26.4404 90.2901C26.4404 96.9175 32.5672 102.29 40.1259 102.29H142.754C150.313 102.29 156.44 96.9175 156.44 90.2901C156.44 83.6627 150.313 78.29 142.754 78.29Z" fill="#3E6BB3"/>
<path d="M112.891 75.7102H79.9707L64.8311 134.16H126.28L112.891 75.7102ZM96.5908 114.85C94.4152 114.85 92.2884 114.205 90.4795 112.996C88.6706 111.788 87.2603 110.07 86.4277 108.06C85.5952 106.05 85.3773 103.838 85.8018 101.704C86.2262 99.5703 87.2741 97.6104 88.8125 96.072C90.3509 94.5336 92.3105 93.486 94.4443 93.0615C96.5781 92.6371 98.7898 92.8549 100.8 93.6875C102.81 94.5201 104.528 95.9298 105.736 97.7388C106.945 99.5477 107.591 101.675 107.591 103.85C107.591 106.767 106.432 109.566 104.369 111.628C102.306 113.691 99.5082 114.85 96.5908 114.85Z" fill="white" stroke="#3E6BB3" stroke-width="2"/>
<path d="M47.3906 134.16C47.3906 128.66 40.0006 124.21 30.8906 124.21C21.7806 124.21 14.3906 128.66 14.3906 134.16" fill="white"/>
<path d="M47.3906 134.16C47.3906 128.66 40.0006 124.21 30.8906 124.21C21.7806 124.21 14.3906 128.66 14.3906 134.16" stroke="#3E6BB3" stroke-width="2" stroke-miterlimit="10"/>
<path fill-rule="evenodd" clip-rule="evenodd" d="M75.8543 45.1056C78.2756 54.1416 87.5635 59.504 96.5996 57.0828C105.636 54.6616 110.998 45.3737 108.577 36.3376C108.297 35.2943 108.916 34.222 109.96 33.9425C111.003 33.6629 112.075 34.282 112.355 35.3253C115.335 46.4479 108.734 57.8805 97.6119 60.8608C86.4893 63.8411 75.0567 57.2404 72.0764 46.1179C71.7968 45.0746 72.4159 44.0023 73.4592 43.7227C74.5025 43.4432 75.5748 44.0623 75.8543 45.1056Z" fill="#3E6BB3"/>
<path fill-rule="evenodd" clip-rule="evenodd" d="M100.712 25.9857C92.61 21.3082 82.2507 24.084 77.5733 32.1855C72.8959 40.287 75.6716 50.6464 83.7731 55.3238C84.7085 55.8638 85.029 57.0599 84.489 57.9952C83.9489 58.9306 82.7529 59.2511 81.8175 58.7111C71.8453 52.9536 68.4285 40.2021 74.186 30.2299C79.9435 20.2577 92.6949 16.8409 102.667 22.5984C103.603 23.1384 103.923 24.3345 103.383 25.2698C102.843 26.2052 101.647 26.5257 100.712 25.9857Z" fill="#3E6BB3"/>
<path fill-rule="evenodd" clip-rule="evenodd" d="M110.811 24.3145C111.615 25.036 111.681 26.2724 110.96 27.0762L92.5281 47.6103C92.163 48.017 91.6443 48.2524 91.0977 48.2594C90.5511 48.2664 90.0266 48.0442 89.6512 47.6469L79.7264 37.1411C78.9847 36.356 79.0199 35.1182 79.805 34.3765C80.5902 33.6348 81.8279 33.67 82.5696 34.4552L91.0361 43.4172L108.049 24.4635C108.771 23.6598 110.007 23.5931 110.811 24.3145Z" fill="#3E6BB3"/>
<path fill-rule="evenodd" clip-rule="evenodd" d="M63.5479 18.925C63.5479 15.1448 66.6123 12.0803 70.3925 12.0803H115.372C118.612 12.0803 121.239 14.707 121.239 17.9472V41.4147C121.239 57.0988 108.278 69.7713 92.64 69.7713C76.7324 69.7713 63.5479 56.8799 63.5479 40.9258V18.925ZM70.3925 15.9916C68.7724 15.9916 67.4591 17.3049 67.4591 18.925V40.9258C67.4591 54.6735 78.8459 65.86 92.64 65.86C106.164 65.86 117.328 54.8923 117.328 41.4147V17.9472C117.328 16.8671 116.452 15.9916 115.372 15.9916H70.3925Z" fill="#3E6BB3"/>
</svg>
