<svg width="68" height="43" viewBox="0 0 68 43" fill="none" xmlns="http://www.w3.org/2000/svg">
<g clip-path="url(#clip0)">
<path d="M5.97474 40.7876C5.66915 40.7876 5.36326 40.6709 5.12987 40.4375C4.66309 39.9708 4.66309 39.2146 5.12987 38.7478L7.51978 36.3579C7.98656 35.8911 8.74274 35.8911 9.20952 36.3579C9.6763 36.8247 9.6763 37.5809 9.20952 38.0476L6.81961 40.4375C6.58622 40.6709 6.28064 40.7876 5.97474 40.7876Z" fill="#465A61"/>
<path d="M34.8129 40.7876C34.5073 40.7876 34.2014 40.6709 33.968 40.4375L31.5781 38.0476C31.1113 37.5809 31.1113 36.8247 31.5781 36.3579C32.0449 35.8911 32.8011 35.8911 33.2679 36.3579L35.6578 38.7478C36.1245 39.2146 36.1245 39.9708 35.6578 40.4375C35.4244 40.6709 35.1188 40.7876 34.8129 40.7876Z" fill="#3B4A51"/>
<path d="M26.0103 2.03142L18.8406 9.20115C18.6255 9.44014 18.3146 9.55963 18.0041 9.55963C17.6935 9.55963 17.3826 9.44014 17.1676 9.20115L9.99789 2.03142C9.51991 1.5774 9.51991 0.812507 9.99789 0.358486C10.4519 -0.119495 11.2168 -0.119495 11.6708 0.358486L18.0041 6.66778C18.0041 6.66778 18.0041 6.66778 18.028 6.64382L24.3373 0.358486C24.7914 -0.119495 25.5559 -0.119495 26.0103 0.358486C26.4883 0.812507 26.4883 1.5774 26.0103 2.03142Z" fill="#465A61"/>
<path d="M18.8404 9.20115C18.6253 9.44014 18.3145 9.55963 18.0039 9.55963V6.66778C18.0039 6.66778 18.0039 6.66778 18.0279 6.64382L24.3372 0.358486C24.7912 -0.119495 25.5558 -0.119495 26.0101 0.358486C26.4881 0.812507 26.4881 1.5774 26.0101 2.03142L18.8404 9.20115Z" fill="#3B4A51"/>
<path d="M37.2029 7.16968H3.58486C1.60105 7.16968 0 8.77073 0 10.7545V34.813C0 36.7965 1.60105 38.3978 3.58486 38.3978H37.2029C39.1867 38.3978 40.7878 36.7965 40.7878 34.813V10.7545C40.7878 8.77073 39.1867 7.16968 37.2029 7.16968Z" fill="#E63950"/>
<path d="M40.7877 10.7545V34.813C40.7877 36.7965 39.1867 38.3978 37.2028 38.3978H18.0039V7.16968H37.2028C39.1867 7.16968 40.7877 8.77073 40.7877 10.7545Z" fill="#CC2E43"/>
<path d="M25.2533 11.9495H8.36465C6.38084 11.9495 4.77979 13.5505 4.77979 15.5343V30.0331C4.77979 32.0166 6.38084 33.618 8.36465 33.618H25.2533C27.2371 33.618 28.8382 32.0166 28.8382 30.0331V15.5343C28.8382 13.5505 27.2371 11.9495 25.2533 11.9495Z" fill="#C6E2E7"/>
<path d="M33.6179 17.9243C32.3004 17.9243 31.228 16.852 31.228 15.5344C31.228 14.2169 32.3004 13.1445 33.6179 13.1445C34.9355 13.1445 36.0078 14.2169 36.0078 15.5344C36.0078 16.852 34.9355 17.9243 33.6179 17.9243Z" fill="#C6E2E7"/>
<path d="M34.8129 22.7041H32.423C31.7626 22.7041 31.228 22.1698 31.228 21.5092C31.228 20.8488 31.7626 20.3142 32.423 20.3142H34.8129C35.4735 20.3142 36.0078 20.8488 36.0078 21.5092C36.0078 22.1698 35.4735 22.7041 34.8129 22.7041Z" fill="#465A61"/>
<path d="M34.8129 27.6433H32.423C31.7626 27.6433 31.228 27.109 31.228 26.4484C31.228 25.788 31.7626 25.2534 32.423 25.2534H34.8129C35.4735 25.2534 36.0078 25.788 36.0078 26.4484C36.0078 27.109 35.4735 27.6433 34.8129 27.6433Z" fill="#465A61"/>
<path d="M34.8129 32.4231H32.423C31.7626 32.4231 31.228 31.8888 31.228 31.2282C31.228 30.5678 31.7626 30.0332 32.423 30.0332H34.8129C35.4735 30.0332 36.0078 30.5678 36.0078 31.2282C36.0078 31.8888 35.4735 32.4231 34.8129 32.4231Z" fill="#465A61"/>
<path d="M28.8382 15.5343V30.0331C28.8382 32.0166 27.2371 33.618 25.2533 33.618H18.0039V11.9495H25.2533C27.2371 11.9495 28.8382 13.5505 28.8382 15.5343Z" fill="#A8D3D8"/>
</g>
<g clip-path="url(#clip1)">
<path d="M42.6493 22.9778C42.4676 22.9778 42.3027 22.8543 42.2575 22.67C42.2045 22.4535 42.337 22.2349 42.5536 22.1819L60.6491 17.7493C60.8652 17.696 61.0842 17.8288 61.1372 18.0454C61.1903 18.2619 61.0578 18.4804 60.8412 18.5335L42.7456 22.966C42.7134 22.974 42.6811 22.9778 42.6493 22.9778Z" fill="#3C434C"/>
<path d="M42.4026 39.6226H65.8706C67.2181 39.6226 67.4853 38.4152 67.4853 37.5234V23.6336C67.4853 22.7418 66.7624 22.0188 65.8706 22.0188H42.4026C41.5108 22.0188 40.7878 22.7418 40.7878 23.6336V37.5234C40.7878 38.4152 41.1542 39.6226 42.4026 39.6226Z" fill="#454D58"/>
<path d="M65.5699 37.1738L54.1365 37.6582L42.7031 37.1738V24.2525C42.7031 24.1038 42.8236 23.9834 42.9722 23.9834H65.3007C65.4494 23.9834 65.5699 24.1039 65.5699 24.2525V37.1738H65.5699Z" fill="#A6AEC4"/>
<path d="M42.9722 38.1427H65.3007C65.4494 38.1427 65.5699 38.0222 65.5699 37.8735V37.1738H42.7031V37.8735C42.7031 38.0222 42.8236 38.1427 42.9722 38.1427Z" fill="#959DB0"/>
<path d="M57.1628 27.7442C57.1628 28.1032 57.2581 28.8787 57.8129 28.8787H62.5711C63.1998 28.8787 63.2211 28.1032 63.2211 27.7442V26.7533C63.2211 26.3943 62.9301 26.1033 62.5711 26.1033H57.8129C57.4539 26.1033 57.1628 26.3943 57.1628 26.7533V27.7442Z" fill="#DF667C"/>
<path d="M57.2742 34.4193C57.2742 34.7908 57.4442 35.5378 58.2812 35.5378C59.0241 35.5378 59.2882 34.8234 59.2882 34.4193C59.1075 34.0445 58.7252 33.7852 58.2812 33.7852C57.8373 33.7852 57.4548 34.0445 57.2742 34.4193C57.2742 34.4193 57.2742 34.4193 57.2742 34.4193Z" fill="#EACC73"/>
<path d="M65.8705 39.1383H42.4026C41.5108 39.1383 40.7878 38.4153 40.7878 37.5235V38.4924C40.7878 39.3842 41.5108 40.1071 42.4026 40.1071H65.8706C66.7624 40.1071 67.4853 39.3841 67.4853 38.4923V37.5234C67.4853 38.4153 66.7623 39.1383 65.8705 39.1383Z" fill="#3C434C"/>
<path d="M62.5711 28.3942H57.8129C57.4539 28.3942 57.1628 28.1031 57.1628 27.7441V28.713C57.1628 29.072 57.4539 29.363 57.8129 29.363H62.5711C62.9301 29.363 63.2211 29.072 63.2211 28.713V27.7441C63.2211 28.1031 62.9301 28.3942 62.5711 28.3942Z" fill="#DC4857"/>
<path d="M58.2814 35.0536C57.8375 35.0536 57.4551 34.7942 57.2744 34.4194C57.2037 34.5662 57.1628 34.7301 57.1628 34.9038C57.1628 35.5216 57.6636 36.0224 58.2814 36.0224C58.8991 36.0224 59.3999 35.5216 59.3999 34.9038C59.3999 34.7301 59.3591 34.5662 59.2884 34.4194C59.1078 34.7943 58.7254 35.0536 58.2814 35.0536Z" fill="#E3BD57"/>
<path d="M61.1077 34.4193C61.1077 34.7908 61.2777 35.5378 62.1147 35.5378C62.8576 35.5378 63.1217 34.8234 63.1217 34.4193C62.941 34.0445 62.5586 33.7852 62.1147 33.7852C61.6707 33.7852 61.2883 34.0445 61.1077 34.4193Z" fill="#B3E59F"/>
<path d="M62.1147 35.0536C61.6707 35.0536 61.2883 34.7942 61.1076 34.4194C61.0369 34.5662 60.9961 34.7301 60.9961 34.9038C60.9961 35.5216 61.4969 36.0224 62.1146 36.0224C62.7324 36.0224 63.2332 35.5216 63.2332 34.9038C63.2332 34.7301 63.1924 34.5662 63.1216 34.4194C62.941 34.7943 62.5586 35.0536 62.1147 35.0536Z" fill="#95D6A4"/>
<path d="M44.4929 31.0666C44.4929 31.29 44.674 31.4711 44.8974 31.4711H54.8359C55.0594 31.4711 55.2404 31.29 55.2404 31.0666C55.2404 30.8432 55.0594 30.6621 54.8359 30.6621H44.8974C44.674 30.6621 44.4929 30.8432 44.4929 31.0666Z" fill="#434D59"/>
<path d="M44.7925 29.3635C44.7925 29.5869 44.9736 29.7679 45.197 29.7679H54.5365C54.7599 29.7679 54.941 29.5869 54.941 29.3635C54.941 29.14 54.7599 28.959 54.5365 28.959H45.197C44.9736 28.959 44.7925 29.14 44.7925 29.3635Z" fill="#434D59"/>
<path d="M45.844 27.6606C45.844 27.884 46.0251 28.0651 46.2485 28.0651H53.4849C53.7084 28.0651 53.8894 27.884 53.8894 27.6606C53.8894 27.4371 53.7084 27.2561 53.4849 27.2561H46.2485C46.025 27.2561 45.844 27.4371 45.844 27.6606Z" fill="#434D59"/>
<path d="M45.197 33.1742H54.5365C54.7599 33.1742 54.941 32.9931 54.941 32.7697C54.941 32.5463 54.7599 32.3652 54.5365 32.3652H45.197C44.9735 32.3652 44.7925 32.5463 44.7925 32.7697C44.7925 32.9931 44.9736 33.1742 45.197 33.1742Z" fill="#434D59"/>
<path d="M46.2485 34.8771H53.4847C53.7082 34.8771 53.8892 34.696 53.8892 34.4726C53.8892 34.2492 53.7081 34.0681 53.4847 34.0681H46.2485C46.025 34.0681 45.844 34.2492 45.844 34.4726C45.844 34.696 46.025 34.8771 46.2485 34.8771Z" fill="#434D59"/>
<path d="M51.3511 26.5018C51.5745 26.5018 51.7556 26.3207 51.7556 26.0973C51.7556 25.8739 51.5745 25.6929 51.3511 25.6929H48.3823C48.1588 25.6929 47.9778 25.874 47.9778 26.0973C47.9778 26.3208 48.1589 26.5018 48.3823 26.5018H51.3511Z" fill="#434D59"/>
<path d="M48.3823 35.6313C48.1588 35.6313 47.9778 35.8124 47.9778 36.0358C47.9778 36.2592 48.1589 36.4403 48.3823 36.4403H51.3511C51.5745 36.4403 51.7556 36.2592 51.7556 36.0358C51.7556 35.8124 51.5745 35.6313 51.3511 35.6313H48.3823Z" fill="#434D59"/>
<path d="M57.1686 32.3566H58.2772C58.5006 32.3566 58.6816 32.1755 58.6816 31.9521C58.6816 31.7286 58.5005 31.5476 58.2772 31.5476H57.1686C56.9452 31.5476 56.7642 31.7287 56.7642 31.9521C56.7642 32.1755 56.9452 32.3566 57.1686 32.3566Z" fill="#454D58"/>
<path d="M61.1625 31.9521C61.1625 31.7286 60.9814 31.5476 60.7581 31.5476H59.6496C59.4262 31.5476 59.2451 31.7287 59.2451 31.9521C59.2451 32.1755 59.4262 32.3566 59.6496 32.3566H60.7581C60.9815 32.3566 61.1625 32.1755 61.1625 31.9521Z" fill="#454D58"/>
<path d="M63.2391 32.3566C63.4625 32.3566 63.6435 32.1755 63.6435 31.9521C63.6435 31.7286 63.4624 31.5476 63.2391 31.5476H62.1305C61.9071 31.5476 61.7261 31.7287 61.7261 31.9521C61.7261 32.1755 61.9072 32.3566 62.1305 32.3566H63.2391Z" fill="#454D58"/>
</g>
<defs>
<clipPath id="clip0">
<rect width="40.7878" height="40.7878" fill="white"/>
</clipPath>
<clipPath id="clip1">
<rect width="26.6975" height="26.6975" fill="white" transform="translate(40.7878 15.5735)"/>
</clipPath>
</defs>
</svg>
